#!OML:ASF I:\Actors\actors\Patient Classification 2\Patient 1\Session 1\actor1.ASF
:FULLY-SPECIFIED
:DEGREES
498
root -1.1048 17.8583 7.32472 -1.61227 -0.312477 -5.87557
lowerback 4.26118 0.978705 1.20347
upperback -5.84622 1.41841 0.0174167
thorax -8.50838 0.619189 -0.819682
lowerneck -35.647 -2.50603 -0.0682815
upperneck 11.5906 -3.308 0.264315
head 9.16686 -1.49075 -0.451428
rclavicle -1.17283e-014 -1.19271e-014
rhumerus -28.252 -29.4189 -19.6403
rradius 119.691
rwrist 11.3769
rhand -52.1711 -51.0899
rfingers 7.12502
rthumb -24.6715 -79.5194
lclavicle -1.17283e-014 -1.19271e-014
lhumerus -18.6592 18.3223 34.6754
lradius 121.864
lwrist -8.78489
lhand -38.5296 -68.1332
lfingers 7.12502
lthumb -11.55 -38.4715
rfemur 16.6673 -0.0637865 22.1085
rtibia 1.74931e-014
rfoot -20.383 -9.13527
rtoes 1.87651
lfemur 27.7681 -3.84649 -11.3659
ltibia -25.3852
lfoot -1.418 18.0948
ltoes -12.7674
499
root -1.09504 17.8567 7.33042 -1.60469 -0.404657 -5.88101
lowerback 4.25181 1.00875 1.18323
upperback -5.911 1.45558 -0.00863
thorax -8.57239 0.636857 -0.840715
lowerneck -35.7444 -2.50441 0.0188483
upperneck 11.5308 -3.32678 0.182922
head 9.15536 -1.50546 -0.497681
rclavicle 3.18055e-015 -1.59028e-015
rhumerus -29.4078 -28.994 -19.8335
rradius 120.597
rwrist 11.3418
rhand -52.1175 -51.3968
rfingers 7.12502
rthumb -24.6201 -79.8333
lclavicle 3.18055e-015 -1.59028e-015
lhumerus -19.5171 18.0618 34.8527
lradius 122.588
lwrist -9.32833
lhand -38.5278 -68.2116
lfingers 7.12502
lthumb -11.5483 -38.5498
rfemur 16.67 0.0335836 22.0872
rtibia 4.77083e-015
rfoot -20.433 -9.08928
rtoes 2.33823
lfemur 27.8223 -3.89604 -11.4272
ltibia -25.394
lfoot -1.53967 18.2164
ltoes -12.3861
500
root -1.08547 17.8563 7.33595 -1.56182 -0.487492 -5.8581
lowerback 4.20518 1.03557 1.16934
upperback -5.97197 1.48707 -0.0511498
thorax -8.60983 0.651 -0.881179
lowerneck -35.7646 -2.51659 0.0346801
upperneck 11.3554 -3.34305 0.16578
head 9.09356 -1.51548 -0.507334
rclavicle 1.96797e-014 7.95139e-016
rhumerus -30.5243 -28.5783 -20.0217
rradius 121.483
rwrist 11.2836
rhand -52.1475 -51.4907
rfingers 7.12502
rthumb -24.6488 -79.9234
lclavicle 1.96797e-014 7.95139e-016
lhumerus -20.3077 17.837 35.0842
lradius 123.288
lwrist -9.849
lhand -38.4072 -68.2988
lfingers 7.12502
lthumb -11.432 -38.6304
rfemur 16.6361 0.125524 22.0319
rtibia -7.95139e-015
rfoot -20.4428 -9.04785
rtoes 2.85046
lfemur 27.8239 -3.84104 -11.4928
ltibia -25.4024
lfoot -1.58254 18.2375
ltoes -12.2638
501
root -1.0771 17.857 7.33962 -1.50507 -0.551251 -5.82731
lowerback 4.18002 1.05653 1.10188
upperback -6.04344 1.50918 -0.0600758
thorax -8.6738 0.665004 -0.855811
lowerneck -35.7332 -2.56852 -0.0663474
upperneck 11.1223 -3.37581 0.237953
head 9.00755 -1.52794 -0.468487
rclavicle -1.27222e-014 1.27222e-014
rhumerus -31.6185 -28.1801 -20.1076
rradius 122.37
rwrist 11.2725
rhand -52.3302 -51.7201
rfingers 7.12502
rthumb -24.824 -80.1287
lclavicle -1.27222e-014 1.27222e-014
lhumerus -21.1739 17.5787 35.2256
lradius 124.029
lwrist -10.1641
lhand -38.567 -68.4153
lfingers 7.12502
lthumb -11.5861 -38.7555
rfemur 16.584 0.196565 21.975
rtibia -3.18055e-014
rfoot -20.4503 -9.02401
rtoes 3.15103
lfemur 27.7934 -3.77148 -11.5502
ltibia -25.4115
lfoot -1.5937 18.2356
ltoes -12.1818
502
root -1.06969 17.8578 7.34324 -1.4683 -0.610483 -5.85018
lowerback 4.17039 1.07543 1.067
upperback -6.11104 1.53262 -0.0537756
thorax -8.74246 0.678125 -0.833099
lowerneck -35.7504 -2.63268 -0.18997
upperneck 10.9782 -3.43068 0.385075
head 8.9627 -1.54109 -0.404314
rclavicle 5.56597e-015 -6.36111e-015
rhumerus -32.7311 -27.7961 -20.1806
rradius 123.254
rwrist 11.3126
rhand -52.8661 -52.8904
rfingers 7.12502
rthumb -25.3375 -81.2272
lclavicle 5.56597e-015 -6.36111e-015
lhumerus -22.015 17.4249 35.3722
lradius 124.7
lwrist -10.3283
lhand -38.7688 -68.6381
lfingers 7.12502
lthumb -11.7807 -38.9894
rfemur 16.5567 0.255745 21.9864
rtibia -3.49861e-014
rfoot -20.4806 -9.029
rtoes 3.08917
lfemur 27.784 -3.76021 -11.5547
ltibia -25.4188
lfoot -1.58541 18.2529
ltoes -11.8823
503
root -1.0627 17.8578 7.34826 -1.44947 -0.64626 -5.86356
lowerback 4.09843 1.08845 1.03669
upperback -6.12284 1.54664 -0.0543556
thorax -8.71324 0.687235 -0.816843
lowerneck -35.9419 -2.69127 -0.304703
upperneck 10.974 -3.47376 0.487887
head 8.99139 -1.55207 -0.358651
rclavicle 3.02153e-014 1.11319e-014
rhumerus -33.7565 -27.4684 -20.2941
rradius 124.066
rwrist 11.3803
rhand -53.0776 -53.2767
rfingers 7.12502
rthumb -25.5401 -81.5847
lclavicle 3.02153e-014 1.11319e-014
lhumerus -22.7343 17.4996 35.7207
lradius 125.321
lwrist -10.4179
lhand -38.6572 -68.817
lfingers 7.12502
lthumb -11.6731 -39.1622
rfemur 16.5552 0.291306 21.9873
rtibia -4.29375e-014
rfoot -20.4555 -9.10168
rtoes 2.57395
lfemur 27.7915 -3.76898 -11.5796
ltibia -25.4351
lfoot -1.50071 18.254
ltoes -11.6328
504
root -1.05497 17.857 7.35364 -1.45037 -0.664565 -5.82617
lowerback 3.98801 1.09634 0.971748
upperback -6.09534 1.54952 -0.0627189
thorax -8.6193 0.693571 -0.786633
lowerneck -36.2301 -2.74227 -0.385211
upperneck 11.0644 -3.5015 0.486911
head 9.06469 -1.56647 -0.355024
rclavicle -6.36111e-015 1.90833e-014
rhumerus -34.6402 -27.1801 -20.4721
rradius 124.787
rwrist 11.4951
rhand -53.3224 -53.3557
rfingers 7.12502
rthumb -25.7746 -81.6298
lclavicle -6.36111e-015 1.90833e-014
lhumerus -23.4604 17.5446 36.0451
lradius 125.969
lwrist -10.4721
lhand -38.5663 -68.8588
lfingers 7.12502
lthumb -11.5855 -39.1991
rfemur 16.574 0.314597 21.9242
rtibia -6.36111e-015
rfoot -20.4143 -9.18614
rtoes 2.00396
lfemur 27.8234 -3.76532 -11.6642
ltibia -25.4758
lfoot -1.3927 18.2585
ltoes -11.7712
505
root -1.0466 17.8561 7.35829 -1.47532 -0.703193 -5.82705
lowerback 3.90071 1.1082 0.962851
upperback -6.07461 1.56329 -0.064651
thorax -8.54506 0.701582 -0.782846
lowerneck -36.3674 -2.77583 -0.428835
upperneck 11.013 -3.51888 0.470203
head 9.06486 -1.57824 -0.358123
rclavicle -2.98177e-015 -7.95139e-016
rhumerus -35.5113 -26.8566 -20.701
rradius 125.488
rwrist 11.5498
rhand -53.1826 -53.1719
rfingers 7.12502
rthumb -25.6406 -81.4654
lclavicle -2.98177e-015 -7.95139e-016
lhumerus -24.2282 17.4133 36.1521
lradius 126.562
lwrist -10.5506
lhand -38.6452 -68.9273
lfingers 7.12502
lthumb -11.6616 -39.2719
rfemur 16.61 0.356842 21.8986
rtibia -2.54444e-014
rfoot -20.3899 -9.21423
rtoes 1.79987
lfemur 27.9009 -3.67596 -11.6848
ltibia -25.5418
lfoot -1.30886 18.1988
ltoes -12.0035
